HIERARCHY
ROOT newVegas:Hips
{
	OFFSET 0.000000 96.479958 0.000000
	CHANNELS 6 Xposition Yposition Zposition Xrotation Yrotation Zrotation
	JOINT newVegas:Pelvis
	{
		OFFSET 0.000000 0.000000 0.000000
		CHANNELS 3 Xrotation Yrotation Zrotation
		JOINT newVegas:LeftUpLeg
		{
			OFFSET 18.735201 -5.666702 -4.541200
			CHANNELS 3 Xrotation Yrotation Zrotation
			JOINT newVegas:LeftLeg
			{
				OFFSET -0.021200 -31.938179 0.493100
				CHANNELS 3 Xrotation Yrotation Zrotation
				JOINT newVegas:LeftFoot
				{
					OFFSET 0.021200 -31.938179 -4.336299
					CHANNELS 3 Xrotation Yrotation Zrotation
					JOINT newVegas:LeftToeBase
					{
						OFFSET 0.943001 -26.722000 15.023500
						CHANNELS 3 Xrotation Yrotation Zrotation
						End Site
						{
							OFFSET 0.000000 30.670183 0.000000
						}
					}
				}
				JOINT newVegas:Left_PantLeg
				{
					OFFSET 0.663870 -9.044666 -1.108900
					CHANNELS 3 Xrotation Yrotation Zrotation
					End Site
					{
						OFFSET 1.415995 20.635357 0.000000
					}
				}
			}
		}
		JOINT newVegas:RightUpLeg
		{
			OFFSET -18.735201 -5.666702 -4.541200
			CHANNELS 3 Xrotation Yrotation Zrotation
			JOINT newVegas:RightLeg
			{
				OFFSET 0.018946 -31.938133 0.493100
				CHANNELS 3 Xrotation Yrotation Zrotation
				JOINT newVegas:RightFoot
				{
					OFFSET -0.018946 -31.938126 -4.336299
					CHANNELS 3 Xrotation Yrotation Zrotation
					JOINT newVegas:RightToeBase
					{
						OFFSET -0.943001 -26.722004 15.023500
						CHANNELS 3 Xrotation Yrotation Zrotation
						End Site
						{
							OFFSET 0.000000 30.670187 0.000000
						}
					}
				}
				JOINT newVegas:Right_PantLeg
				{
					OFFSET -0.661674 -9.044716 -1.108900
					CHANNELS 3 Xrotation Yrotation Zrotation
					End Site
					{
						OFFSET -1.415958 20.635269 0.000000
					}
				}
			}
		}
	}
	JOINT newVegas:Spine
	{
		OFFSET 0.000000 10.199997 -0.299500
		CHANNELS 3 Xrotation Yrotation Zrotation
		JOINT newVegas:Spine1
		{
			OFFSET 0.000000 11.900002 -1.516600
			CHANNELS 3 Xrotation Yrotation Zrotation
			JOINT newVegas:Spine2
			{
				OFFSET 0.000000 13.600006 -2.842500
				CHANNELS 3 Xrotation Yrotation Zrotation
				JOINT newVegas:Neck
				{
					OFFSET 0.000000 9.624100 -2.890100
					CHANNELS 3 Xrotation Yrotation Zrotation
					JOINT newVegas:Head
					{
						OFFSET 0.000000 14.068802 -1.351900
						CHANNELS 3 Xrotation Yrotation Zrotation
						JOINT newVegas:Hair_Back
						{
							OFFSET 0.000000 3.231903 -17.524799
							CHANNELS 3 Xrotation Yrotation Zrotation
							End Site
							{
								OFFSET 0.000000 19.849884 0.000000
							}
						}
						JOINT newVegas:Hair_Front
						{
							OFFSET 0.000000 31.260406 4.573800
							CHANNELS 3 Xrotation Yrotation Zrotation
							JOINT newVegas:Hair_Front1
							{
								OFFSET 0.000000 2.284103 11.993300
								CHANNELS 3 Xrotation Yrotation Zrotation
								JOINT newVegas:Hair_Front2
								{
									OFFSET 0.000000 2.284103 11.993300
									CHANNELS 3 Xrotation Yrotation Zrotation
									End Site
									{
										OFFSET 0.000000 12.208862 0.000000
									}
								}
							}
						}
						JOINT newVegas:Jowel
						{
							OFFSET 0.000000 -7.458206 6.864100
							CHANNELS 3 Xrotation Yrotation Zrotation
							End Site
							{
								OFFSET 0.000000 19.849884 0.000000
							}
						}
					}
				}
				JOINT newVegas:LeftShoulder
				{
					OFFSET 15.263000 10.923401 -0.547700
					CHANNELS 3 Xrotation Yrotation Zrotation
					JOINT newVegas:LeftArm
					{
						OFFSET 25.438599 -2.830597 -13.032500
						CHANNELS 3 Xrotation Yrotation Zrotation
						JOINT newVegas:LeftForeArm
						{
							OFFSET 29.960503 0.000000 0.000000
							CHANNELS 3 Xrotation Yrotation Zrotation
							JOINT newVegas:LeftHand
							{
								OFFSET 27.849251 0.000000 0.000000
								CHANNELS 3 Xrotation Yrotation Zrotation
								JOINT newVegas:LeftHandThumb1
								{
									OFFSET 4.487587 -3.305161 6.305391
									CHANNELS 3 Xrotation Yrotation Zrotation
									JOINT newVegas:LeftHandThumb2
									{
										OFFSET 5.480453 -3.164139 3.164143
										CHANNELS 3 Xrotation Yrotation Zrotation
										JOINT newVegas:LeftHandThumb3
										{
											OFFSET 5.159721 -2.978973 2.978967
											CHANNELS 3 Xrotation Yrotation Zrotation
											End Site
											{
												OFFSET 2.494507 5.926697 1.738678
											}
										}
									}
								}
								JOINT newVegas:LeftHandIndex1
								{
									OFFSET 18.578728 -0.527832 5.208049
									CHANNELS 3 Xrotation Yrotation Zrotation
									JOINT newVegas:LeftHandIndex2
									{
										OFFSET 3.192009 0.000000 0.000000
										CHANNELS 3 Xrotation Yrotation Zrotation
										JOINT newVegas:LeftHandIndex3
										{
											OFFSET 3.835129 0.000000 0.000000
											CHANNELS 3 Xrotation Yrotation Zrotation
											End Site
											{
												OFFSET -0.034599 3.816971 0.371180
											}
										}
									}
								}
								JOINT newVegas:LeftHandMiddle1
								{
									OFFSET 18.476105 0.000000 0.000000
									CHANNELS 3 Xrotation Yrotation Zrotation
									JOINT newVegas:LeftHandMiddle2
									{
										OFFSET 3.324875 0.000000 0.000000
										CHANNELS 3 Xrotation Yrotation Zrotation
										JOINT newVegas:LeftHandMiddle3
										{
											OFFSET 4.596550 0.000000 0.000000
											CHANNELS 3 Xrotation Yrotation Zrotation
											End Site
											{
												OFFSET 0.057701 4.578827 0.399218
											}
										}
									}
								}
								JOINT newVegas:LeftHandRing1
								{
									OFFSET 17.732719 0.121887 -4.201567
									CHANNELS 3 Xrotation Yrotation Zrotation
									JOINT newVegas:LeftHandRing2
									{
										OFFSET 2.733170 0.000000 0.000000
										CHANNELS 3 Xrotation Yrotation Zrotation
										JOINT newVegas:LeftHandRing3
										{
											OFFSET 3.178268 0.000000 0.000000
											CHANNELS 3 Xrotation Yrotation Zrotation
											End Site
											{
												OFFSET 0.119102 3.170624 0.185394
											}
										}
									}
								}
								JOINT newVegas:LeftHandPinky1
								{
									OFFSET 15.989624 -0.606689 -7.535461
									CHANNELS 3 Xrotation Yrotation Zrotation
									JOINT newVegas:LeftHandPinky2
									{
										OFFSET 2.538986 0.000000 0.000000
										CHANNELS 3 Xrotation Yrotation Zrotation
										JOINT newVegas:LeftHandPinky3
										{
											OFFSET 2.593102 0.000000 0.000000
											CHANNELS 3 Xrotation Yrotation Zrotation
											End Site
											{
												OFFSET -0.150902 2.584198 0.152708
											}
										}
									}
								}
							}
							JOINT newVegas:Left_Sleeve
							{
								OFFSET 0.267448 -0.649796 0.577675
								CHANNELS 3 Xrotation Yrotation Zrotation
								End Site
								{
									OFFSET 0.000000 15.991241 0.000000
								}
							}
							JOINT newVegas:Left_CapeC
							{
								OFFSET 15.715958 -8.608795 -6.935905
								CHANNELS 3 Xrotation Yrotation Zrotation
								JOINT newVegas:Left_CapeC1
								{
									OFFSET 0.000000 -8.688499 0.000000
									CHANNELS 3 Xrotation Yrotation Zrotation
									End Site
									{
										OFFSET 0.000000 8.688499 0.000000
									}
								}
							}
						}
						JOINT newVegas:Left_CapeB
						{
							OFFSET 26.118385 -8.608795 -7.079235
							CHANNELS 3 Xrotation Yrotation Zrotation
							JOINT newVegas:Left_CapeB1
							{
								OFFSET 0.000000 -8.688499 0.000000
								CHANNELS 3 Xrotation Yrotation Zrotation
								End Site
								{
									OFFSET 0.000000 8.688499 0.000000
								}
							}
						}
						JOINT newVegas:Left_CapeA
						{
							OFFSET 5.115639 -8.608795 -10.395809
							CHANNELS 3 Xrotation Yrotation Zrotation
							JOINT newVegas:Left_CapeA1
							{
								OFFSET 0.000000 -8.688499 0.000000
								CHANNELS 3 Xrotation Yrotation Zrotation
								End Site
								{
									OFFSET 0.000000 8.688499 0.000000
								}
							}
						}
					}
				}
				JOINT newVegas:RightShoulder
				{
					OFFSET -15.263000 10.923401 -0.547700
					CHANNELS 3 Xrotation Yrotation Zrotation
					JOINT newVegas:RightArm
					{
						OFFSET -25.438599 -2.830597 -13.032500
						CHANNELS 3 Xrotation Yrotation Zrotation
						JOINT newVegas:RightForeArm
						{
							OFFSET -29.960503 0.000000 0.000000
							CHANNELS 3 Xrotation Yrotation Zrotation
							JOINT newVegas:RightHand
							{
								OFFSET -27.849251 0.000000 0.000000
								CHANNELS 3 Xrotation Yrotation Zrotation
								JOINT newVegas:RightHandThumb1
								{
									OFFSET -4.487587 -3.305161 6.305391
									CHANNELS 3 Xrotation Yrotation Zrotation
									JOINT newVegas:RightHandThumb2
									{
										OFFSET -5.480453 -3.164139 3.164143
										CHANNELS 3 Xrotation Yrotation Zrotation
										JOINT newVegas:RightHandThumb3
										{
											OFFSET -5.159721 -2.978973 2.978967
											CHANNELS 3 Xrotation Yrotation Zrotation
											End Site
											{
												OFFSET -2.494507 5.926697 1.738678
											}
										}
									}
								}
								JOINT newVegas:RightHandIndex1
								{
									OFFSET -18.578728 -0.527832 5.208049
									CHANNELS 3 Xrotation Yrotation Zrotation
									JOINT newVegas:RightHandIndex2
									{
										OFFSET -3.192009 0.000000 0.000000
										CHANNELS 3 Xrotation Yrotation Zrotation
										JOINT newVegas:RightHandIndex3
										{
											OFFSET -3.835129 0.000000 0.000000
											CHANNELS 3 Xrotation Yrotation Zrotation
											End Site
											{
												OFFSET 0.034599 3.816971 0.371180
											}
										}
									}
								}
								JOINT newVegas:RightHandMiddle1
								{
									OFFSET -18.476105 0.000000 0.000000
									CHANNELS 3 Xrotation Yrotation Zrotation
									JOINT newVegas:RightHandMiddle2
									{
										OFFSET -3.324875 0.000000 0.000000
										CHANNELS 3 Xrotation Yrotation Zrotation
										JOINT newVegas:RightHandMiddle3
										{
											OFFSET -4.596550 0.000000 0.000000
											CHANNELS 3 Xrotation Yrotation Zrotation
											End Site
											{
												OFFSET -0.057701 4.578827 0.399218
											}
										}
									}
								}
								JOINT newVegas:RightHandRing1
								{
									OFFSET -17.732719 0.121887 -4.201567
									CHANNELS 3 Xrotation Yrotation Zrotation
									JOINT newVegas:RightHandRing2
									{
										OFFSET -2.733170 0.000000 0.000000
										CHANNELS 3 Xrotation Yrotation Zrotation
										JOINT newVegas:RightHandRing3
										{
											OFFSET -3.178268 0.000000 0.000000
											CHANNELS 3 Xrotation Yrotation Zrotation
											End Site
											{
												OFFSET -0.119102 3.170624 0.185394
											}
										}
									}
								}
								JOINT newVegas:RightHandPinky1
								{
									OFFSET -15.989624 -0.606689 -7.535461
									CHANNELS 3 Xrotation Yrotation Zrotation
									JOINT newVegas:RightHandPinky2
									{
										OFFSET -2.538986 0.000000 0.000000
										CHANNELS 3 Xrotation Yrotation Zrotation
										JOINT newVegas:RightHandPinky3
										{
											OFFSET -2.593102 0.000000 0.000000
											CHANNELS 3 Xrotation Yrotation Zrotation
											End Site
											{
												OFFSET 0.150902 2.584198 0.152708
											}
										}
									}
								}
							}
							JOINT newVegas:Right_CapeC
							{
								OFFSET -15.715958 -8.608795 -6.935905
								CHANNELS 3 Xrotation Yrotation Zrotation
								JOINT newVegas:Right_CapeC1
								{
									OFFSET 0.000000 -8.688499 0.000000
									CHANNELS 3 Xrotation Yrotation Zrotation
									End Site
									{
										OFFSET 0.000000 8.688499 0.000000
									}
								}
							}
							JOINT newVegas:Right_Sleeve
							{
								OFFSET -0.267448 -0.649994 0.577675
								CHANNELS 3 Xrotation Yrotation Zrotation
								End Site
								{
									OFFSET 0.000000 15.991302 0.000000
								}
							}
						}
						JOINT newVegas:Right_CapeA
						{
							OFFSET -5.115540 -8.608795 -10.395824
							CHANNELS 3 Xrotation Yrotation Zrotation
							JOINT newVegas:Right_CapeA1
							{
								OFFSET 0.000000 -8.688499 0.000000
								CHANNELS 3 Xrotation Yrotation Zrotation
								End Site
								{
									OFFSET 0.000000 8.688499 0.000000
								}
							}
						}
						JOINT newVegas:Right_CapeB
						{
							OFFSET -26.118187 -8.608795 -7.079266
							CHANNELS 3 Xrotation Yrotation Zrotation
							JOINT newVegas:Right_CapeB1
							{
								OFFSET 0.000000 -8.688499 0.000000
								CHANNELS 3 Xrotation Yrotation Zrotation
								End Site
								{
									OFFSET 0.000000 8.688499 0.000000
								}
							}
						}
					}
				}
				JOINT newVegas:Left_Collar
				{
					OFFSET 18.625099 8.655502 8.828100
					CHANNELS 3 Xrotation Yrotation Zrotation
					JOINT newVegas:Left_Collar1
					{
						OFFSET 14.783401 10.540405 -1.259500
						CHANNELS 3 Xrotation Yrotation Zrotation
						End Site
						{
							OFFSET 0.000000 18.199875 0.000000
						}
					}
				}
				JOINT newVegas:Collar_Back
				{
					OFFSET 0.000000 15.630707 -20.132601
					CHANNELS 3 Xrotation Yrotation Zrotation
					End Site
					{
						OFFSET 0.000000 22.523010 0.000000
					}
				}
				JOINT newVegas:Left_Peck
				{
					OFFSET 17.239599 -5.132599 25.482599
					CHANNELS 3 Xrotation Yrotation Zrotation
					End Site
					{
						OFFSET 0.000000 22.523010 0.000000
					}
				}
				JOINT newVegas:Right_Peck
				{
					OFFSET -17.239599 -5.132202 25.482599
					CHANNELS 3 Xrotation Yrotation Zrotation
					End Site
					{
						OFFSET 0.000000 22.523010 0.000000
					}
				}
				JOINT newVegas:Right_Collar
				{
					OFFSET -18.625099 8.655792 8.828100
					CHANNELS 3 Xrotation Yrotation Zrotation
					JOINT newVegas:Right_Collar1
					{
						OFFSET -14.783401 10.539993 -1.259500
						CHANNELS 3 Xrotation Yrotation Zrotation
						End Site
						{
							OFFSET 0.000000 18.199631 0.000000
						}
					}
				}
			}
		}
		JOINT newVegas:Belly
		{
			OFFSET 0.000000 -6.540398 9.014299
			CHANNELS 3 Xrotation Yrotation Zrotation
			End Site
			{
				OFFSET 0.000000 11.566666 0.000000
			}
		}
	}
	JOINT newVegas:ElvisFacialAnim_Joint
	{
		OFFSET 1.000000 -95.330101 -8.825800
		CHANNELS 3 Xrotation Yrotation Zrotation
		End Site
		{
			OFFSET 0.000000 35.315800 0.000000
		}
	}
}
MOTION
Frames: 4
Frame Time: 0.033333
6.443532 90.721130 372.824158 -5.133504 -1.816099 0.103869 0.000000 0.000000 -0.000000 -20.118160 -2.492776 -2.862826 43.427716 3.212534 1.033986 -17.328233 17.149326 -0.966188 -0.000000 -0.000000 0.000000 -0.000003 0.000000 0.000000 -22.067769 -1.491209 0.246448 46.441591 -0.904633 0.572992 -20.084818 -12.194771 -1.844696 -0.000000 -0.000001 -0.000000 -0.000000 -0.000000 0.000000 7.641004 0.278844 0.158215 3.856334 0.191799 0.042152 3.854763 0.225253 0.030182 5.617242 -0.295243 0.273461 5.617250 -0.295244 0.273461 0.000001 -0.000000 0.000000 5.617387 -0.295246 0.273463 5.617190 -0.295238 0.273459 -0.000001 0.000000 -0.000000 0.000001 -0.000000 0.000000 1.295697 -13.196259 2.218613 -34.498473 3.150219 -31.469748 0.000048 -129.111448 0.000049 -40.001505 -3.458448 27.433315 -26.030618 12.376592 -4.588260 12.478364 32.440656 3.566221 0.000002 -0.000001 0.000000 2.481940 -8.806231 -33.674909 1.410835 3.814256 -40.585660 -0.000002 0.000000 -0.000000 1.580145 6.287346 -41.574692 0.644809 2.673802 -27.111307 0.000006 0.000001 0.000001 9.397692 11.901199 -54.998712 1.611401 4.036090 -43.514961 0.000001 0.000001 -0.000000 6.844810 27.940747 -54.559718 0.462890 2.284256 -22.907840 -0.000001 -0.000002 -0.000000 0.000001 0.000003 -0.000002 0.000001 0.000003 -0.000002 0.000001 0.000003 -0.000001 -0.000000 0.000003 -0.000002 -0.000000 0.000003 -0.000003 -0.000000 0.000003 -0.000002 -0.000002 0.000003 -0.000002 0.716939 7.988303 4.404088 -56.093485 -22.744964 25.618865 0.000045 105.232629 -0.000062 -58.082194 4.898589 -12.177906 11.463800 -1.536022 2.984071 9.576163 -42.164042 -3.825333 -0.000001 -0.000005 -0.000001 2.668347 2.806333 9.714636 2.221689 -3.970789 58.441202 0.000000 0.000002 0.000004 0.503545 -4.290458 25.516926 1.615774 -3.528566 49.196408 0.000001 -0.000002 -0.000001 3.323298 -7.951242 39.034999 2.132364 -3.914641 57.142367 0.000002 0.000001 0.000001 2.079997 -15.001252 50.134292 2.096796 -3.891490 56.619837 -0.000001 0.000002 -0.000004 0.000001 -0.000001 0.000003 0.000001 0.000001 0.000001 0.000001 -0.000001 0.000002 0.000001 -0.000003 0.000002 0.000001 -0.000002 0.000000 0.000001 -0.000003 0.000002 0.000001 -0.000002 0.000000 -0.000000 -0.000000 -0.000000 -0.000000 -0.000000 -0.000000 -0.000000 -0.000000 -0.000000 -0.000000 -0.000000 -0.000000 -0.000000 -0.000000 -0.000000 -0.000000 -0.000000 -0.000000 -0.000000 -0.000000 -0.000000 0.000000 -0.000000 0.000000 0.000000 0.000000 -0.000000 
6.747835 90.882774 374.140991 -6.027801 -1.190889 -0.137804 -0.000000 0.000000 0.000000 -18.009863 -2.003209 -2.495453 43.346474 1.903491 0.743041 -18.695718 17.177045 -0.055830 0.000000 -0.000001 0.000000 0.000002 -0.000000 -0.000000 -18.918330 -2.125446 -0.224041 45.875211 -0.299742 0.699882 -22.397502 -12.527641 -1.385194 0.000000 -0.000001 -0.000000 -0.000002 0.000000 -0.000000 6.975580 0.557774 0.047952 3.456427 0.384477 0.036399 3.452902 0.419049 0.018685 5.650925 -0.362749 0.290341 5.650930 -0.362749 0.290342 0.000001 0.000000 0.000000 5.650920 -0.362749 0.290341 5.650982 -0.362749 0.290342 0.000000 -0.000000 -0.000000 0.000001 0.000000 0.000000 1.293469 -13.113065 2.355933 -37.121607 -1.802473 -33.776580 -0.000005 -131.004763 0.000004 -34.352286 -5.544103 29.683210 -30.000923 12.554208 -4.131222 10.659904 32.068920 2.699129 0.000003 -0.000002 -0.000005 3.851474 -11.697126 -22.515304 1.107786 3.429752 -35.791335 0.000002 -0.000000 0.000000 1.048002 5.606781 -33.523122 0.339594 1.967359 -19.584903 0.000000 -0.000000 0.000002 9.087964 13.129260 -47.554977 1.127146 3.456390 -36.113727 0.000003 -0.000001 -0.000000 5.480033 29.754609 -48.755034 0.461249 2.280371 -22.866673 0.000000 -0.000005 -0.000001 -0.000001 0.000002 -0.000001 -0.000001 0.000002 -0.000001 -0.000001 0.000002 -0.000000 -0.000002 -0.000001 0.000000 -0.000002 -0.000002 -0.000001 -0.000002 -0.000001 0.000000 -0.000004 -0.000002 -0.000001 0.755404 7.303353 3.240312 -55.352724 -21.555809 27.103779 -0.000074 111.097569 0.000078 -59.173986 6.910160 -11.561309 6.185252 -3.240067 2.968029 9.442707 -41.036712 -3.783130 0.000001 -0.000003 -0.000003 3.069800 4.139033 10.128581 2.014410 -3.836075 55.397188 -0.000002 -0.000000 0.000004 0.507065 -4.297800 25.617138 1.361108 -3.291969 44.917165 -0.000000 -0.000003 0.000002 3.842850 -8.582426 39.067220 1.921257 -3.770255 53.992874 -0.000001 0.000001 0.000001 2.406051 -16.815953 49.507192 1.880964 -3.740682 53.377737 -0.000002 -0.000000 0.000000 -0.000001 -0.000001 0.000004 -0.000002 -0.000001 0.000002 -0.000001 -0.000002 0.000004 -0.000000 0.000001 -0.000002 -0.000001 0.000001 -0.000004 -0.000000 0.000001 -0.000002 -0.000001 0.000001 -0.000003 -0.000001 0.000000 0.000000 -0.000001 0.000000 0.000000 -0.000001 0.000000 0.000000 -0.000001 0.000000 0.000000 -0.000001 0.000000 0.000000 -0.000001 0.000000 0.000000 -0.000001 0.000000 0.000000 -0.000000 0.000000 0.000000 -0.000000 0.000000 0.000000 
7.014853 90.939896 375.315704 -6.604606 -0.767724 -0.320582 0.000000 -0.000000 -0.000000 -16.309742 -1.727683 -2.338372 43.407187 1.100538 0.619539 -20.041057 17.197318 0.573801 0.000000 -0.000001 -0.000000 -0.000002 0.000000 0.000000 -16.480406 -2.397336 -0.487740 45.464751 0.004254 0.715452 -24.278047 -12.895878 -0.790202 0.000000 0.000000 -0.000000 -0.000000 0.000000 -0.000000 6.241756 0.709713 0.110399 3.041809 0.490281 0.122346 3.037038 0.526401 0.102433 5.597434 -0.408746 0.319291 5.597439 -0.408746 0.319291 0.000002 0.000000 -0.000000 5.597507 -0.408747 0.319291 5.597428 -0.408746 0.319291 0.000000 -0.000000 0.000000 0.000002 0.000000 0.000000 1.271484 -12.377834 2.772146 -38.801222 -7.485840 -36.498909 0.000020 -132.286995 0.000015 -28.783735 -7.035033 30.186434 -33.530563 12.558932 -3.650905 8.223412 29.639247 2.737252 0.000002 0.000001 -0.000008 5.581118 -13.847742 -11.932884 0.886078 3.099663 -31.899657 0.000000 0.000000 -0.000001 0.635386 4.882489 -25.482143 0.162406 1.371235 -13.508312 -0.000002 0.000001 -0.000002 7.881161 14.107021 -38.579589 0.785044 2.931342 -29.979319 -0.000004 0.000001 0.000001 3.977664 30.887331 -42.710563 0.721716 2.818882 -28.716967 -0.000003 -0.000003 0.000000 -0.000000 -0.000000 0.000003 -0.000000 -0.000000 0.000003 -0.000001 -0.000000 0.000003 -0.000000 -0.000001 -0.000000 0.000000 -0.000003 0.000000 -0.000000 -0.000001 -0.000000 -0.000002 -0.000002 -0.000001 0.807747 7.076618 2.140852 -54.095214 -18.153463 28.451967 -0.000010 115.327389 0.000002 -57.916514 8.187186 -8.677392 0.692476 -4.748095 2.924670 9.301025 -39.829200 -3.734904 0.000001 -0.000003 0.000001 3.462748 5.509986 10.452538 1.807517 -3.685095 52.243448 -0.000001 0.000000 -0.000000 0.508167 -4.300075 25.648185 1.120492 -3.031958 40.557021 0.000000 0.000001 0.000000 4.367932 -9.227350 39.039206 1.712114 -3.609315 50.743555 -0.000000 -0.000001 0.000001 2.706759 -18.656867 48.770874 1.667737 -3.572677 50.035418 0.000001 0.000005 0.000001 0.000001 0.000001 -0.000000 -0.000000 0.000001 0.000001 0.000001 0.000001 -0.000000 -0.000002 -0.000001 -0.000002 -0.000002 -0.000002 -0.000001 -0.000002 -0.000001 -0.000002 -0.000002 -0.000002 0.000001 0.000000 -0.000000 0.000000 0.000000 -0.000000 0.000000 0.000000 -0.000000 0.000000 0.000000 -0.000000 0.000000 0.000000 -0.000000 0.000000 0.000000 -0.000000 0.000000 0.000000 -0.000000 0.000000 -0.000000 0.000000 -0.000000 0.000000 -0.000000 -0.000000 
7.251705 90.895744 376.367310 -7.128154 -0.287749 -0.392194 -0.000000 -0.000000 -0.000000 -14.909751 -1.622335 -2.396431 43.673951 0.445560 0.632102 -21.306222 17.235639 1.064091 0.000000 -0.000001 -0.000000 -0.000000 -0.000000 0.000000 -14.516782 -2.611673 -0.727213 45.355745 0.110030 0.668683 -25.721642 -13.225497 -0.224695 0.000000 -0.000001 -0.000000 0.000003 -0.000000 -0.000000 5.586039 0.750325 0.308537 2.691022 0.519146 0.255316 2.686144 0.555161 0.236251 5.451665 -0.435946 0.420959 5.451664 -0.435946 0.420959 0.000001 0.000000 0.000000 5.451666 -0.435946 0.420959 5.451632 -0.435945 0.420958 0.000003 0.000000 -0.000000 0.000001 0.000000 0.000000 1.281480 -11.720397 3.484342 -40.169244 -12.752615 -39.117002 0.000001 -132.807769 0.000004 -24.940443 -7.934738 30.070273 -37.134086 12.096385 -2.730382 3.573021 20.893067 4.156163 -0.000000 -0.000001 -0.000001 7.241451 -15.571716 1.194738 0.720694 2.816999 -28.696053 0.000001 -0.000001 0.000003 0.247534 3.815330 -14.294203 0.067600 0.888355 -8.702972 -0.000000 -0.000000 0.000000 4.540638 14.142886 -22.457438 0.529913 2.436652 -24.534963 -0.000002 -0.000001 -0.000001 2.398538 30.958744 -34.170910 2.198052 4.573705 -51.318264 0.000004 0.000000 -0.000003 -0.000000 -0.000001 -0.000000 -0.000000 -0.000001 -0.000000 -0.000000 -0.000001 -0.000000 0.000001 -0.000003 -0.000003 0.000001 -0.000004 -0.000003 0.000001 -0.000003 -0.000003 -0.000001 -0.000004 -0.000004 0.882322 7.239177 1.011348 -52.653956 -13.661126 29.373396 -0.000035 118.570076 0.000014 -56.308838 8.863649 -5.778918 -4.883369 -6.036238 2.898209 9.155347 -38.578100 -3.681804 -0.000000 -0.000003 0.000001 3.843324 6.886512 10.692467 1.607252 -3.521215 49.057625 -0.000000 0.000002 -0.000001 0.507240 -4.298162 25.622078 0.900969 -2.755181 36.210504 0.000003 0.000000 -0.000000 4.886311 -9.873284 38.963432 1.511034 -3.435530 47.471922 -0.000001 -0.000001 -0.000000 2.965743 -20.487059 47.950025 1.463420 -3.391311 46.672295 0.000002 0.000002 0.000000 -0.000001 0.000001 -0.000001 0.000000 0.000000 0.000001 -0.000001 0.000000 -0.000000 -0.000000 -0.000002 0.000002 -0.000001 -0.000001 0.000001 -0.000000 -0.000002 0.000002 -0.000001 -0.000001 0.000003 -0.000000 0.000000 -0.000000 -0.000000 0.000000 -0.000000 -0.000000 0.000000 -0.000000 -0.000000 0.000000 -0.000000 -0.000000 0.000000 -0.000000 -0.000000 0.000000 -0.000000 -0.000000 0.000000 -0.000000 -0.000000 -0.000000 -0.000000 -0.000000 -0.000000 -0.000000 
